<mxfile host="app.diagrams.net" modified="2024-07-13T11:34:46.686Z" agent="Mozilla/5.0 (Windows NT 10.0; Win64; x64) AppleWebKit/537.36 (KHTML, like Gecko) Chrome/126.0.0.0 Safari/537.36" etag="gzvnFpDn0PVZSVrlzVaQ" version="24.6.5" type="github">
  <diagram name="Page-1" id="4BCpnWboWJWNFK3hFeUW">
    <mxGraphModel dx="2129" dy="704" grid="1" gridSize="10" guides="1" tooltips="1" connect="1" arrows="1" fold="1" page="1" pageScale="1" pageWidth="827" pageHeight="1169" math="0" shadow="0">
      <root>
        <mxCell id="0" />
        <mxCell id="1" parent="0" />
        <mxCell id="khfz_JvH05aHgdhEc7UK-1" value="AWS Cloud" style="points=[[0,0],[0.25,0],[0.5,0],[0.75,0],[1,0],[1,0.25],[1,0.5],[1,0.75],[1,1],[0.75,1],[0.5,1],[0.25,1],[0,1],[0,0.75],[0,0.5],[0,0.25]];outlineConnect=0;gradientColor=none;html=1;whiteSpace=wrap;fontSize=12;fontStyle=0;container=1;pointerEvents=0;collapsible=0;recursiveResize=0;shape=mxgraph.aws4.group;grIcon=mxgraph.aws4.group_aws_cloud_alt;strokeColor=#232F3E;fillColor=none;verticalAlign=top;align=left;spacingLeft=30;fontColor=#232F3E;dashed=0;" vertex="1" parent="1">
          <mxGeometry x="210" y="70" width="940" height="600" as="geometry" />
        </mxCell>
        <mxCell id="khfz_JvH05aHgdhEc7UK-22" value="Region" style="points=[[0,0],[0.25,0],[0.5,0],[0.75,0],[1,0],[1,0.25],[1,0.5],[1,0.75],[1,1],[0.75,1],[0.5,1],[0.25,1],[0,1],[0,0.75],[0,0.5],[0,0.25]];outlineConnect=0;gradientColor=none;html=1;whiteSpace=wrap;fontSize=12;fontStyle=0;container=1;pointerEvents=0;collapsible=0;recursiveResize=0;shape=mxgraph.aws4.group;grIcon=mxgraph.aws4.group_region;strokeColor=#00A4A6;fillColor=none;verticalAlign=top;align=left;spacingLeft=30;fontColor=#147EBA;dashed=1;" vertex="1" parent="khfz_JvH05aHgdhEc7UK-1">
          <mxGeometry x="30" y="30" width="880" height="540" as="geometry" />
        </mxCell>
        <mxCell id="khfz_JvH05aHgdhEc7UK-16" value="" style="edgeStyle=orthogonalEdgeStyle;html=1;endArrow=block;elbow=vertical;startArrow=none;endFill=1;strokeColor=#545B64;rounded=0;flowAnimation=1;" edge="1" parent="khfz_JvH05aHgdhEc7UK-22">
          <mxGeometry width="100" relative="1" as="geometry">
            <mxPoint x="556" y="68" as="sourcePoint" />
            <mxPoint x="656" y="68" as="targetPoint" />
          </mxGeometry>
        </mxCell>
        <mxCell id="khfz_JvH05aHgdhEc7UK-18" value="" style="edgeStyle=orthogonalEdgeStyle;html=1;endArrow=none;elbow=vertical;startArrow=block;startFill=1;strokeColor=#545B64;rounded=0;flowAnimation=1;shadow=0;flowAnimationDirection=reverse;" edge="1" parent="khfz_JvH05aHgdhEc7UK-22">
          <mxGeometry width="100" relative="1" as="geometry">
            <mxPoint x="554" y="108" as="sourcePoint" />
            <mxPoint x="654" y="109" as="targetPoint" />
          </mxGeometry>
        </mxCell>
        <mxCell id="khfz_JvH05aHgdhEc7UK-37" value="" style="group" vertex="1" connectable="0" parent="khfz_JvH05aHgdhEc7UK-22">
          <mxGeometry x="460" y="50" width="110" height="128" as="geometry" />
        </mxCell>
        <mxCell id="01bcKxn0nz6YhpWITHBo-2" value="" style="sketch=0;points=[[0,0,0],[0.25,0,0],[0.5,0,0],[0.75,0,0],[1,0,0],[0,1,0],[0.25,1,0],[0.5,1,0],[0.75,1,0],[1,1,0],[0,0.25,0],[0,0.5,0],[0,0.75,0],[1,0.25,0],[1,0.5,0],[1,0.75,0]];outlineConnect=0;fontColor=#232F3E;fillColor=#ED7100;strokeColor=#ffffff;dashed=0;verticalLabelPosition=bottom;verticalAlign=top;align=center;html=1;fontSize=12;fontStyle=0;aspect=fixed;shape=mxgraph.aws4.resourceIcon;resIcon=mxgraph.aws4.lambda;" parent="khfz_JvH05aHgdhEc7UK-37" vertex="1">
          <mxGeometry x="16" width="78" height="78" as="geometry" />
        </mxCell>
        <mxCell id="khfz_JvH05aHgdhEc7UK-14" value="Action Group&lt;br&gt;Lambda Function" style="text;strokeColor=none;align=center;fillColor=none;html=1;verticalAlign=middle;whiteSpace=wrap;rounded=0;" vertex="1" parent="khfz_JvH05aHgdhEc7UK-37">
          <mxGeometry y="78" width="110" height="50" as="geometry" />
        </mxCell>
        <mxCell id="khfz_JvH05aHgdhEc7UK-38" value="" style="group" vertex="1" connectable="0" parent="khfz_JvH05aHgdhEc7UK-22">
          <mxGeometry x="640" y="50" width="110" height="128" as="geometry" />
        </mxCell>
        <mxCell id="01bcKxn0nz6YhpWITHBo-5" value="" style="shape=image;verticalLabelPosition=bottom;labelBackgroundColor=default;verticalAlign=top;aspect=fixed;imageAspect=0;image=data:image/png,iVBORw0KGgoAAAANSUhEUgAAAZAAAAGQCAYAAACAvzbMAAAACXBIWXMAAAsTAAALEwEAmpwYAAAAAXNSR0IArs4c6QAAAARnQU1BAACxjwv8YQUAADbLSURBVHgB7Z1bsGXHede/b2skS7IcldHNFUZVYFyVIrYeohec8OLgAucpggeoIlU8UBW/UeAUT+BwJ6EKeHCogoKEEFJUYuNLLiaExOBLLmA5vhHbcgzEjh3bsaUZaTQazegyo9Ocdenv0mudPTNrzj5n73N+P1mz9167V3evbU3/1/f9u3vp2bNniwAAANwkKwEAAFgAAgIAAItAQAAAYBEICAAALAIBAQCARSAgAACwCAQEAAAWgYAAAMAiEBAAAFgEAgIAAItAQAAAYBEICAAALAIBAQCARSAgAACwCAQEAAAWgYAAAMAiEBAAAFgEAgIAAItAQAAAYBEICAAALAIBAQCARSAgAACwCAQEAAAWgYAAAMAiEBAAAFgEAgIAAItAQAAAYBEICAAALAIBAQCARSAgAACwCAQEAAAWgYAAAMAiEBAAAFgEAgIAAItAQAAAYBEICAAALAIBAQCARSAgAACwCAQEAAAWgYAAAMAiEBAAAFgEAgIAAItAQAAAYBEICAAALAIBAQCARSAgAACwCAQEAAAWgYAAAMAiEBAAAFgEAgIAAItAQAAAYBEICAAALAIBAQCARSAgAACwCAQEAAAWgYAAAMAiEBAAAFgEAgIAAItAQAAAYBEICAAALAIBAQCARSAgAACwCAQEAAAWgYAAAMAiEBAAAFgEAgIAAItAQAAAYBEICAAALAIBAQCARSAgAACwCAQEAAAWgYAAAMAiEBAAAFgEAgIAAItAQAAAYBEICAAALAIBAQCARSAgAACwCAQEAAAWgYAAAMAiEBAAAFgEAgIAAItAQAAAYBFnBOCEc+bB75C7Hnm4f129+lWyd/klefkr5+SlP3hKrj31nADAMhAQOLHc9aaz8tof+l65c188DuLK478v53/qYwgJwAL07NmzRQBOEF2U8dq/+r1y72OP3vA5F37+43Lh3R8XALhxEBA4cZz9ib8md7z+AblZnv/wE/LUu35dAODGwESHE8V9P/yWReLRcc9b39ifDwA3BgICJ4abTVvN0Z1/1yNnBQCuDwICJ4JX7UcdnWF+GHRCBADXBwGBnaebnvvQOx+Tw6KbtbV69Z0CAOtBQGDn+c5/9ld6ETlMXv3mPyUAsB4EBHaazvQ+bPHo2ESdACcNBAR2lnt/8NFbNs0BYDkICOwknWl+39vfIpvizENEIADXAwGBneOwTXMAWAYCAjvH6/bFA48C4PhBQGCnuJWV5gBwuCAgsDNgmgNsFwgI7ARdymqTpjkA3DwICGw9nXh0iwUBYLtAQGDrwTQH2E4QENhquo0NMc0BthMEBLaWzjQ/rB12AeDwQUBgK+lSVogHwHaDgMDWUU3z7tnmALC9ICCwdTz4jrdhmgPsAAgIbBWdad490AkAth8EBLaG17z1jfgeADsEAgJbASvNAXYPBASOHUxzgN0EAYFj5/63vwXTHGAHQUDgWOlM87vf/AYBgN0DAYFj49X7wrGtpjnpNIDrg4DAsdClrB54x9tkW7kNAQG4LggIHDnd3T2mOcDug4DAkcNKc4CTAQICRwqmOcDJAQGBI2ObTXMAuHkQEDgSWGkOcPJAQGDjVNMc3wPgZIGAwMa5j5XmACcSBAQ2Smead7vsAsDJAwGBjXHXm85imgOcYBAQ2Aj9SvMf+QEBgJMLAgKHDqY5wOkAAYFDp/M9EA+Akw8CAodKJx73PvaoAMDJBwGBQ+NVr38A0xzgFIGAwKHQpaweeudjAgCnBwQEDgVMc4DTBwICt8x9P8xKc4DTCAICt8S9P/joiTTNzzx0rwDAehAQWExnmrPDLsDpBQGBRWCaAwACAot43b544HsAnG4QELhpOtP8jv30FQCcbhAQuClOqmkOADcPAgI3DI+lBYAIAgI3RCce3WJBAIAKAgI3BKY5ALQgIHBduh12Mc0BoAUBgbV0pjk77ALAHAgIHEiXskI8AOAgEBCYpZrm3eNpAQDmQEBglgff8TZMcwBYCwICEzrT/M5HHhYAgHUgIJB4zVvfiO8BADcEAgIGK80B4GZAQKAH0xwAbhYEBHrufzuPpQWAmwMBgd40v/vNbxBwiMQArg8Ccsp59b5wYJpPQUAArg8CcorpUlYPvONtAgCwBATklNLdYWOaA8CtgICcUlhpDgC3CgJyCsE0B4DDAAE5ZWCaA8BhgYCcIlhpDgCHCQJySqimOb4HABwWCMgp4T5WmgPAIYOAnAI607zbZRcA4DBBQE44d73pLKY5AGwEBOQE0680/5EfEACATYCAnFAwzQFg05wROJF0vgficWvodz0ouv9auvfheKnfz3wnqk0l3f+0LRQ+a3/KUI+mIm0j3ffWnnrbtcky1jVpI7Y1qV+9GTtlcqI1mvqq0nzv5dpLLWNb3n7+nTSct3flZSmXX5KXv3Ze9vZfYXtBQE4gnXjc+9ijArfGbW/pVuvXEXB/eB4HPRcN7Y+VKinjANkPxP179RFe/fv+ta9rOK41D6C1vnFArYN7f776oKv1WB3I1dqo9VtbK29T7LNaHaXWsYp1ifdN46uGPsXryPXa8SA61la87nqtq/Za/Pe4+tXzvZBc/ujvyYtPfFNgu0BAThivev0DmOaHhNbb7eFDjjZMTEpzUr47Lzburux7q2TVnJiq9oE23q3ngVutfuvvXJXaDsySIphcThohzOdrEBerIwz+Xj72d6grRyni4iWNyImLy+1/4v79/6YflHu+/7vllXPPybPv/R15/iNfFNgO8EBOEF3K6qF3PiZwiFQNceWwwa3/pGGkjIOrhOihJnGqJqRoIdQf79JNP9T6Ect2r0XLZMDOEUActUN/x3pXqygMq8l11zr8+jX1ta+jb2s1fl/6/tcUV4xe6j8moKpJdEpod6hJPHIZrrb/7/v+v/Hn5eGf/Otyz5/7boHjBwE5QWCaHy5FpI0vJHoGtUwc433A7AZ4U4EsQm3QEu68V/0grY1wuBB4CiiUCXUMA7cfi6kwK5v61AzsVqtW2fO6qxCkiCWLQj1cYr+TjrlomOhIEIoik0hKJV7/fmrxge+QB/7mX5AH/hY7Sh83CMgJ4b4fZqX5YXP73a8aB+ExzaI5kpD6Werd+sru2ItGQckDvEcbGgbhGNkUH4BDZKGhXE35mEhIrVNmIhLpfQaLKGKUMozYdn4/ItQ+rXIUUQWnpMjBpxSoavi9QvseeoV+BVEKgicav27ERzWJzT3f/6flO3/8L/Pf/TGCgJwA7v3BRzHNjwrTjDDShYHfi/lgWMIsqnjXbjokQY/ioF1r0piSGutMH70yDcqRAp3aBxWrzyIQ9XbsGsMAbj5F1AEVE5IchdSfRUdzXA/on0d4/e8TelusE8OH+vv1ExnGg/X37cTjjxN5HxsIyI7TmebssLspNL82d889o5hoGEDrrCIJaac0w0hF8gytYbD14VEkegglNBc9jGJRzNDWKkUXOWLxKMLbGHve15GjgHg9OWqp9YhkMar9TemwUrvmrZXm/NrmJFUokgQploszvLrPt+2LB+nb4wEB2WEwzTdNHQyLZIWIReKdudrduotFIxxRk8IAWTzeyKmmWkRzhKCr5AyMEcHgodTytWM10rCXKjCrIeXWj/VRMFIH47WNgiNxEM/Gfqxj4oPUyKFRiy4dtVqtxv6pHYv/N6zUpzfH02tvu78Lr/vRvyhwtCAgO8zr9sWDu64NorZUb/pVFAQb9JqZRxYJiMSoxf2QlcRUV9KoFBF4F0q98y75+xLFLabAVFI04u17iFCadnT0cmK0YW3Ha4nXJ+INil9/+MXyW03yt389WTBiKk7T76Z2RJv+3fEn7+/XQMHRgYDsKJ1pfsd++go2SRYOTRGDSPYMVOLNdZmebuXSrKMZ8UjthTcx/VPLlkasXAR0vHMfCpe20rEvyYS36KWEDvu1VTVS8YhEQgou+T72O/g1SohaqnjFSMYELqifRRzqUUn3autgSjVJBro1UNxUHR0IyA6CaX40uHkt+U59PFAHtjqQhhvwWoPUVJQ2wpAFKN7C13O615piGtdajBFOl3qa60dSuNDYMANLJKfSmg7ZvyvrQ33bC5EM60bqtfbrPeycWlFJ6bLq5ZgJLgf/ziI61VsN35eoYWrt5RBo4MF3vE3gaEBAdgweS3t0dHe3xeYEqQ+GUsdZzYO2xvRNMwBKvNuOwhTv8tUGyHjOMCgX3/KkhK1TdPAHxi/s/Lj4L5bVMLhL7EMcg+OYPApYmY1cPNwoITrxaoYBfrWKAin2m9VIo48iNPcpprDqOSX8/5I7mbnzkYflrkfOCmweBGSHODPONoEjIgiARRtRGOqfmrXE10uMYtAU6G+o1W/LJz5HbN90ZRoxqIlFyWJlg3uoVyWlsVJUIn5xqm1fYwRVKytNR8MHS0M16bzYVJmdcyW5tpqmssm+JuL2e3UCX8I6nNDO3X/mDQKbBwHZITDNj55+AA13yL5GIdxxq6+r8GmtU2HwRYjZbG/CFY8UwrFGTSStOamm935qa+hj8BfG/loarEYgxY+3EUWMPkRiH+u1eFRUf46YVtJ4jeF3jHVp+F3qNiraRBSlyEQMa0wYf/ehbBal17yVrU6OAgRkR+hml2CaHzF10KtTZuuNb5CRNt8vos2Am0VAm0jExaU1tEOEI5L3yGra0FDR1FCPFZZUJmrSUGsyGlL74YIlriKp6aYSrlFi+ml8m0z1+rn4sRwIBTGTQUji2pjYgzm68qt77iSNdQQgIDtAZ5qzw+7REwMHy8Frs07DBt8oGmF2Vf1DByGaayGlvoaCeUsS1dyhNE7nFFaquwpJXNgYzk0RirWnk3Ymdc/0Z9K8/XDjwB8u1NN6IqLZ70n9lyB4EiLAWG5NOow01uZhO/ctp0tZIR7Hg00fHW+XLdaId/B9mXYEDQNi+k6HHXSbgdwWDB6Q8ilW3BfTDWkfT4l1ZVaW6impb3MzrmI0I0msRHLUFMrUiCP2U7yspl/OFM7EUUsZhbjEMyXGJX60eFqwNj2jUv0K/l5Z6v8vrilnHiLdu2mIQLaYapp3j6eFo0dVshEe/k0PkUqDq1i0ke+NXRByeikOtNMIIOb7S4g6vHwt2kznrYNpbH6ladhO4iH+OqOF6WP0G0o4P3lEzWhfr2HosqfH6usqRCUxmvNUVtORMkRde3vZvI8BSfccEdgsCMgW081nxzQ/Ptr7ZAlpIfcyapqlFlGPWqqY1ME83dBruvN3Uz2871ZfBMEYimvSnL6mIEjBnRijgjZlJNJ6NGZsRwXMP0K6xhyByGhStLOhShafdoBXLzNMl45NNrO8NByrlXTXujfO1CrR2/HqufHaPKSwtpTONO/ms8Px4ekZsYFU46AvIh41RAN8+HLY3NDrMHGoH7o6VxLuvL1uqamoIFoSRUZ0srVIOj9EJzYFOYhIbUNjmfEi6xRaFy9tSoyXpGFfLEvxxd9HZfaJjeqpOJEgOvH3C2X7dkM/+9+1i0BWmiKOdjuU1d13CGwWIpAt5DVvfSO+xzZgUYMPvCUOzDYQx3Pi+ox4LCzrDnffVr3tPxUrjQO+D8pdZBJ9kyxkItnzEJEmqolpLfN32vMkpoOqsIhMVubH79XLaxCi2F67bsX6KDoGFpqEtoz/mIZreC7JZIGJfyxlehwOHwRky2Cl+XZRB8g4rXR4Y9/INK0UTtaZz6MgeFShk3M1DPwaK9Cmnlp4RshqeirOtooCo03Z/q4+lB98nGLXqpMBuYhHMiFNFsSjYxUjNpFZbyjUOPP9fPtD4FMm31Vh2bv8ksBmIYW1RWCabyM+8sXtR1oPIw6k9j6kYvLAHUSjjRYkRgua2vfBOXYvRCZjfXHluFkxK+9LPVZCm9VXaGczxcWFVWDswHgtwyQo3+BQrMp2JlUQAs0zpiwt55fZ/H6teOUowzZVDOWuPXlRYLMQgWwR97+dx9JuE3r7bTbwx2dbmGcx/murHdTv2HPGKtx7h5ROkTAYp3G5eh/1mKbFjLVP3TM0bBgPYhY9BXsq4GhUl/pUvyhW40AcB/koUvV4u8BvEKEQATRjfLuuo10tPlnCEasovup8UvFBNCJz9annBDYLArIldKb53W9m4dM2sTpzW/9axNcn2E12uNmORq/aoC45cugH2LBlh+X6xUQgqIPUh1gN43u8TfdBPEYQpRmsreyYTirp7l+SaAUVlLT4T/1IHfyrf+FthxRZM/PM6hZJ1z2UjdOgh5MsfRWjuHBZfmrJdRzAi1/4hsBmQUC2gFfvCwem+ZZSIwjtt5oKc43CYN+xCnFGuMVPg2Y4LQqQZ2p0XDVeTXfxAVZV2oWGFnWsPEqQECF07JVmdlRqUtPsMl/DIRNx9LSa9dRe7ZkfUcNaoqiI5FAjHLIIrNQIJwjHXuN3BDGa21Txhc9/XWCz4IEcM13K6gGeX7C1eLpKZa/kIMEjBB/APZoQySGGBjFqb6tjuWaANKGwDoXPzcHwsaQxdkyv9ZtEDcLU2wXx9tFSWJJIk5mK2Kp4j3ymJ7WiE7+330nrBAT/baw90RQUxdlsuXPFniVvXRyF5Np++urlr5wT2CxEIMdIZ5Zjmm8vMa/vs61iJODpnjQAV3HxmvwOPIhEF2XUQVT99numba/Gb9NdpLLA+KCtUVCCAT7nV8R0kAYl0tTWjCgUmY1waj9KLmqrSer04bxNjAt2sd9ID+ynqB6Yxbrw7o8LbB4E5BhhpfkuUEXDRyobFC1SGI7GpwgOx+P38dh0xfjwXrPIePPJc4gDuvXHLAVtD/jxMQoZjPS2D7XaLEDDHX249ro1rtWfry+Ka2tVaOhHFaNon6TfwS4utz+JQrxj9raLPl74HOmro4AU1jGBab4DNHfswypo+9IH/+QP2NcpWugFyHwNydFAc46mO/6hjmHrRJ1ED9FQtzSV6uw4G4XC/G5VTxs1F+HpK+9rnDo772k070VSdFXFSw7QAY8+xh7MRSAzFxc3Vbz04Sd6EYHNQwRyDGCa7wYx/dK/rYN3fLWPOvxtSqmecCctPgMrppZiWW/IGuxFox8XVWYGaQ9V+tNLfIqfNv0O29FLM5OrXm/eqEq0NV/EB3at5bUtL5InjYVIQuNU4PTDiqYozI9PmPNB1DdVvHbuklz4edJXRwUCcsSw0nx30CgWKeIIg+vKwgaZ3FaXMPCnMbNGLT6wJ2/BxMcH4ThVOLZVmvSO1SWNOTAxC5pptCq22DDqmc2wCikr83xCumpoorhI6cyCR/E6XSPy8YmlcYDJERcOxk0V/+jvvFfg6EBAjpBqmuN77AY1fujM7mFhYL3j9zt/adIxNtir2t+udisR04h0Vy8SU08aBKbDxtEyE12kSiQs7pvxYyxcGaMByX0xiyNejzRGvURhkZSOi5JyYJqu/V6kKaeTfutMNFJFowrfhXc/TurqiEFAjpD7WGm+U7ixG1zgSSQyfpHGNx8IY9qrRi3app76u39f9xF9CpvmVNM/q6E//aFVIyQmTCuPRppuDcFECfVX0RhFZxWuz36HEjqkafCvn7OoiqW4NERF5n9ImFYc+hHTV61gpMWDxTdXlNGXufjBzzDz6hhAQI6I7rG03S67sDvYXXcVifpSB2uJD3FaZVGxSCN7Dp7O0nHwVDGLPKTHfPD3KKWECopK2o22zKZ6mplYMvV1wte5TPrer1Ol3vnnilxHg1COg/sY2/Rbr4hdutn4Mp1WHBcG1kPJWEmd7qIOfI/jAQE5Arqo497HHhXYMTRoh+a7Yhsww2Dmnkn3ZmUCEx8kVSODeiAOzvUl7ldVgr8wecahyoRU1yR1pDI/c8qjouxbTMWsSDTPyyTESVGTXUP9ruRyk34W72PdOqXk37ilE4/O92Dn3eMBATkCuhlXpK52Ec0rre3uV9JdcD9XKkQd5mW0N9a11jQgjmmcEhfaeft58d/K0k8uPHFmk4iGGCJ5GfFNKBttB//aO17CIg7V+VlUSVg1tRaOeTtxq3dvQ0NUlk8qe3upvrjA5Omf+ii+xzGCgGyYTjhIXe0uOjFzxQbt4cDoSLT+hkhKScW0VRUY2ylX6uAsklM0jaMt1TBWiZOj8vTbMqbEYpQkkyjHhKLpb/GmvF/10LgIsfgJ3rWgiel58falF1xFUWzLNag27YR2L7zncbn8+JcFjg8EZMOw3mOH0fGOvhnA7B5//D4+a8MGy3YsDGJiX42D8TBw+121JZNa4RHxdXQxcqjRzhil5Dv8RtiCl2CpKBv466Be/FrCdakGoau1hnZKkdSW1utOv5y3FWz89Dme0uxcYgef//AT+B5bACvRN8xdPNd8p7GHM2mz8lyaAVLzXXZO62gakNPjaOsAXmJ4YBIlZtTHQbk70ImWO9TD4C+lqkAQA59FpU0/89jeiGB4yWpljUnc5t4EL53nx9vV59pEdLEP9bJyOk9spfm1c8/J+Z/6mMDxQwSyQe5601m8j10m3F2nwbdmkbQZFKVGGd2ncRS0Bzq1ZSUO68EzqRFAGHTjflDVJ+h31p32r4rS0IXSRD1qSS7vRTi/ufY4iKdUnno0kk6JItGKZmrPKTJPyV0x9q68vG+avw/TfEtAQDbIHa9/UGB3GW6OVWLUMd56S52eGwqa4W4mcIgASnM3X2c2xbXX7Y17XZlta0Savs2NvsmfcFMiCZ+2ZSWkr3JWq4li4lkpnEijvM56GuPVhIjDPRgNx7JgqMY0VpGn3vVrmOZbBAKyQe585KzA7nLbnXeEkVonqRYfacPspDGK6FNPc2szgg41N/BDZFAH2NBEnaU0mO6S+yDVk5iRBW2iAvG+pmMaxExF5jwf94LGCEjKVPxaAU2VqCT/x/o6/jsuEAw7lNjnSrfS/Aqm+VaBgGyQ2x+6V2CHqemf5pZY0yA/DKzpvrxmrNQTR9EAtnKSZ22FGsamNL1OBEkPeD9TJprfdUV4FZ5BPER8O5MicdaWX5/7MrVOCUHOWHR6RUE8SuqXTlJj9W3c9bfjyuO/j2m+hSAgG0R5UNSOEwc3CYNlvPuvnoMPsf27+BCMWJ/6Ooqc5w+posYAcJ3K/WlnWrXRxeR+vzRtFUkC4+9XFnVY25LeiE5SVv45z6jybdYbTZj1P7rydWfdSpeywjTfThCQDXI7BvrJQf0u3lP34Q48Dqgi0qZw0h291dfUo+Fj8lCmYhA9dQnBkFcuk1CgXYXe73tVG4xfRDEcU0lt3/3N9Drj19VbsfRVzQbKTFQnQ/SzCnt8dWZ5t9Ic32M7QUA2yN7lFwV2nJCqSub4kKQPax+8fLwDH46JLZ6rn7WOriM20Uqjh+Ar3Es+Oaw9aaIElRn7YeagqK8AFwmjflQmjzx0LjfVXGP2iEI6SkouM4RoM+IVfouxOCvNtxsEZIO8cvllgR2muaOfnbaayo0fLSzIe0y5DyLNzXuJFoDotANNV7zOPuOl4dngJmhtSin0TWubuUGVOBEgXIeI70kl+fpbYVHxulsPJ4lfqiub5ZVn3v1xufThLwpsLwjIBinMVd9x1BYS5sG22HdSUzz9d2HAH8tFy7x77XeknSiF5n/H6KMOrGmQ9ht4PzWuKFeV+KwOH9JLeG0mBlj00xxqfJySH24+62GI+TvewXo149zktIuwlWlE+MonMM13AQRkg7z05acEdpdhKJzsgesDfB2nQ7rHhutx4FcTnIG6025NWaWdaLWJUqRuiZ5H95oFaiMdN/QbIQvH6nCeZnQlgQzXsmpG9bHNtPgxmOX1+ryd8beIDYWXPKvM2+pN85/8mMD2g4BskBe+8A2B3aUa36rzaxs0TT2NA/BwPM56ituWlJr/n6lnPpoZBn1bUFik2X9rOFhaT0WbbVDiDICJUeL1aL+flqSoJO2eK3lSr78XmZ32bG1XARqPazO1uJuBhWm+UyAgG+TFz39dYLexJIvWO+aQmtGDSsdDfmdeSlNOPbXjU2ZnBnatgjTuPdVoRx2gh8hEU0RhUZEFBGVsTxpPQ61gHczzNcRII7ShkkV0FMjSXsP00sff1L/q2u2eKoh47A4IyAbp/iIgIrtNu6ZhfDi6pZHGL8bX7HrU8dWnskq66/ZT64On6g65bXQh/rmqQSkeIBzkR4S+aXt+7at6hDOrTKFxj8TG6yptcmoqrulaRZvIKHezE4+Lv/wZgd0BAdkwPK9gd/HBL6ST8h9SB/MeW+Ed7ubHUvWuPA26umqrz6kradNYuZzq1J+pgtQGF81IPtZuYUmuO1ouetBMK83pKlX/JpxbouJo7kaMPq587uuY5jsIArJhLn34CdaD7ChuVHfUu3b/aDSpHAll3P/I+2UN50/seYtS2uijxjWNn+7NararS6yrxBlUEyWQdhhQC6+motXXHdNO01JN3/xaLDZLIjpE6ufe9esCuwcCsmE6U/DiL39WYBeJCXuPCCbaEdJCGtNEcersaJ/4EpCcJ4rRjnsdOklBdau0LcqxE2cilVFpSrMmI1+devoq+Bj9mePGjZqutrj4tT9CbDvUM/3dShKxrpuY5rsLAnIEXPzgZ/gLspNkM7jOnpr6DWFATO8s2WNRyjBca5q11J6bpvZKGNTHCKRIfrRsCamzaqF0AmDnND2NZrd3v4ztFJ8wUEKvYopKXLzUfpe69kOrVkra32suh7XP0//+Y/zd2GEQkCOgi0LOvevXBHYLN7x98Cvryk8ig7guYsBFon4uLhBxYLdxNg/ybVosVR4oMmNk6/wGjjFdlSKjcF5zofbiIjW+a6OWev21/yF9hWm++yAgR8QLn/9G/xcGdotmvV0SiZjfn0sRicwb0HX6qq2JkJCtKs0ALOoPMxxngOVtP8a7+0Ysal9zb8SjjPRF3MtLQn3qnS3FPZW2obY3Tbm8/fvw/qWvPIVpfgJAQI6Q7i9MZ6rD7tAKQJGpGd0+XKkOyKplUkdcAJhjE49CYvpnaMDncon4JoRDuVUQIa/bvQ1xdbKv2xRamUYZJWx22F3PmBJLAdFYV/U5DvJaYu8H0/yiPPljHxTYfRCQI6abbYKI7Bhh6pXO3K2vxsjA7toliIPOVaiNPzCeUXyQ7Y9WIzvNnFJreqYGa9clzZTKZ3BpLj+JVIJAeckohHFn4lhi3KalHjFh8bq7Pnx7XzzwPU4GCMgx0IkI6aztZ3XmNruDtxy+BD0p7RAu8dZ8fAmC0pjjw6FwL69NIFBmUkaltDWMY7o29dVvSk6zWYpMTUuCBZLq1qalkrf8TW9NdGrkMkiH1zVuw9KZ5i9/5ZzAyeCMwLHQpbOuPXlRXvtD3ydnePDUVqK3NZFFG01oeKnpHqkRhItLTDNJ8itCBeM5WmQiQjazKkUiYua12myomXoDtWzXSE09mXg07n4rbHYsRkDa/AAlp8KsPRnE5+IHP4tpfsIgAjlGumcddHPgSWltKz5YpryVTlZHjHf3fu9e01DxeHtH75/UUz3mO4RIoQpEmembDdDexdJEKSYFQRRqY/ZnEECZlA+1FE9TWTsli4X5IuH8zvfoHg4FJws9e/ZsETh2uijktT/0vXLXIw8TkWwJl7/1tFz59jPDh3BnXuzjeCxsez68D4O7j95+oy5q55inUmdHdX5K3eEkpq90Taoq7sxbZz2F9x55zNQrnn4a6gr3lEnI4ufwfvK7TMt2fscf/d334XucQEhhbQlxO4e7Hjkrd77p4f71zEP3IijHSN3ccHovPp2im1NY4125NIO/Do+3jTvemrcdBuzSuBylSQ/FNuPArVJXvo9Ri5YDysdjK6kzsaxf6m1bxWPg4l3xhYveh2k/n/xxTPOTChEIwAHc+Ze+R27/noclpq/S1NYqEaOvkEUlpKRE0qC66p+34c/3mEQqrbdQ7/RjxCB+TveUw72xeD/dtq4x0VyHt6Whev+c0k6jGOR284JHFZ2NYmJbF97zOOs9TjB4IAAHMhgL+cl5IvWZGiYeEp1viROfRMxlyJspahOtSHsbd4D41KI+s1hlr/jzPeJMqei8pNlgZeaeUWXm2PzK+xg5NReb+tyZ5ojHyQYBATiAvWdf6F813WWLmM/QDK9t/n9gbhpsMw1X64zgZhQvGoMH74N4ykvbWU8xSpJoqBdLQU1TYb7Oo0431pDCqu34Qsdi/c4zwLyeV/ZTVt2UXTjZICAA1yGmcVJsoTnOiFFDHYglpLLs+R8S7+KL+Q51PaJFGNq2JymFZPtsxb5FgWn6NOl7TLdZpDL239aLyGQ/r2lt+cjVJy/2pjmcfBAQgAOo47JNkVX1VJGVskUaYv/ozOA65qm08RykpsHC7rrdx9V4TCSuNNeUiuo9lCAi2qa8kp/SSoRInlxcpqk6Ez5N9Zr4adiyPVz0+Z/4EKb5KQEBATiIOJ7WQT6NpWoDc6lxg85V4Ome4bCv/kj127G4Vch4bpyqW1/CzKwS16BY68VCmSaYkVC9CUAyzFdZaNxzkbDafKjSnlW1/8+Fd39CXvjCNwROBwgIwFpGjyLNV63flRCZjM/BKNNzRRrvwzyFcH6KSorkxYdjKiwqWvQxgsDEKMSioSaFFaOF0oikRTIl1iON+Z+VqH737Ac/I8++B9P8NIGAABxACYN/HJhLGFzT+Nt4DDFK8fTPWHez3qLW4FWvUn0mPAdGLX5+THzlJJi3HZoUmXM34nHrdPw6TyPoUlbPvudxgdMFAgJwAHbnLfmuu6Z7fIwtObWkcQAvk+FZrF47Q+qTAG1thTU73vn3HkWdTaXp6/78MTLyWjX0KUYPEkTQoxS7Dhk3p6+ejVVe2ynhGof2r517Tr71zvf3D06D0wUCAnBdLMmfBk+PCNRLmaqMaSfVMKsqC5HVraEZjZFDJE/P7V73xFVDqxmhea1JmuZbfOPFmAErufP9Na1CSq2M3Y7btMRpyM/89G9gmp9SEBCAA9i7cGV4o03Ovy0YMz3RM7DvNd3JW+qqprbGwbuuBVGb0VWr19RorWulzb5VPTlaiN/5Og9vp81W2bmjAHVVrMKTEFeWNhu+71aaX378ywKnEwQE4CDioF3vvoOXkae9quQV2uKDc/AOZC4ICVkrKx7ChBJnc42FhycExjhAPN1WPYokfJr9/4NUUKKojBMIJK5ud+/m0ke+iO9xykFAANZRPYa9xp4uPu21Gua+sM9PH8Sg5JRXaeufi3CiOIR0UvVW6kK/sQ8lriORNv0V640txAglmvraSFNtZmXndSmrLnUFpxsEBOAA1HyM7Cf4mN8Y5HbHLuGG3rcCMbOhKeO2Rh2gJx2xF682p6ziPlu5/aZ8DHXi+ygvbXRSwptOrK5clW/96AcwzQEBAbgeRSQZ4e3deX2r06MJDdGGNgb80I7PsLITwjl9H1qvokwjDlWdRBtVuDQUVpFpem2u36u8/fy5f8VKcxhAQADWkGbU9rf3ceZTXgdi68vD3b7asfH7lSZHIUUDEvUipJXEZ1dpI1qr8GCqKGK1P9VKqcFPjU7ixol2/sxnM9LHreef/c+fkCufwDSHAQQEYA2l9wPU797VV2oXiVt6xEiiHgv1pEXkams+TDbqoopwpqZoJZ9fQr028bc0Bn6oz9aChD6m7FWY4msVq19jF4Fc3hcOTHOIICAAa6h38B3DoJtTUB5NyHwayBWm/6M340uRNv01mz4aj+2ZQR7WowQx89lXIdKJ/QoVFgmClLqm3o6O03hDx66duyTP/IffFIAIAgJwAHsvXk2fh8DDZ0HZHX1MP9WydY2HnTtGACs/3prlcWuTqV/StiDhWDFDw3YOlpyKqlrQi14IUzREKiox9vGoq1x5Wb799z6A7wETEBCAg4gCYmZIu0Fh/V7SwTL5ToLdoZYaaleKW8EmnZUimRLaiKGE5PoOfi+pc21fqzdTpyU/zUpzOAAEBGAd0TQQswuaWU/NKY1nIemuf/QVJGxxIjqZOWUpq4PESpqIZyY6KaHTvio9dzqtBRlTYXENfGeaP//R3xOAOc4IAFwHzXf61UiXmP5pI4X8Wj0LSyNJk4JK5xfzH8bMVDrf2q2RTKsoNVKyYxOFS32fKdF/18226gQE4CCIQACuQ4wOtFmn4VHEOOU2hBqtlkjYm6oa3ymNZeLhlNSOW+k+0yuISlIQ8RIqU4WQOI1Y/Xkn4+n9SvOf+S0BWAcCAnAdipRJHsliBq2DeFhsF0xyjSmjVciHqdcjImGA1zSQW+ChLhA+A8xlpDQi0T6eNu+N1fgvYyP1nG6F+bf/PqY5XB8EBGAdjZ/RLsTT2ZN8e5H0JMPh6FQ0bBpuPrd+2itxmnAQAZspFUwZDdu1B5GKfsik180uwRff+zv74nFJAK4HHgjA9WgiguRrBA/Do4+azhJLa2m3klub+qQeqlb6ymZoedOax/sqSOm4pgAprldJnkkq658lRCOdeDz3K/9bAG4EIhCAAygvXJ0ek5oeqn6EbzMyHIiGeDwvrB8p+UuVnPaqnkc26H1Txmx+x7ZiSip02AprTluJhFRWkRef+CamOdwUCAjAAZR+HUgYrG0WVfd+5cdE0nPSLWNVD658G3dPLZUkBLZZlZSQUqq6UqzOMtfRlCKTPCMspNtqQy6CLobXzj0vT//r/yEANwMpLIA1JC8hTqdtHJDWc6hpolrKjoXZV/XE5G+EKbalSBaZSb+8Y+lpg+EUb6YRwubYk//gA/gecNMQgQDcAGrTYTV63YlkVo9pqbhNSC4Z6pIQNTRl4469Q/PDh73ZUERCpKPNNLBp7bWKCz/z24gHLAIBAViHVo8ipKUsWpiWW5kohFSUqK84F0lTfS1iCB+TbdGGFPW45nUh9VgtXqORSdqrqeri+/ZN8/+KaQ7LQEAA1lHcOK8zsErIS7kYeCyRVhAmszqY8MVNdQ3nV/M8m+VZKFxshvpXGhY0xqhjFLNVmDXmaxlVrn71aXn2vb8jAEtBQADWoSF1FLQhDtTZp/D01HB6FRFN4jDNQPlajGGgL8M2JeaZxJlekt57P8e2LPKR0WOJ04KH126R4Ll//isCcCtgogOsod3jKhnbQTeySS7+fQhMrJzEOoILstLg1A/HinpaS0Um7dpMq+Sc68Q0txTaePzcv/jV/hkfALcCEQjAGmxm05jCsoV9HljIsCp89DrytrtSykyFIXKpcUrvaJSS0lRtkGFFg6i1aS6Z8Usk9Ltr48J//C15+avnBeBWQUAADqBbBxKCAR/7J6rgEUn0M+qakPqlP8o2BRniC0SGZ5wX0VyPSDP1dmy/FH+GSI1gJK7vaPq3z6Vf/dy+af67AnAYICAAB9CtRI+ms6qvFE8eRJNS0vC3Kg7jJb1q0BkXh1JmSkYRsw0bp+1K6Fve1HF4UuEr+ymrLvoAOCwQEIA1JH/c5sfmAprzWdPdTHQVJ2RNaFNUcdfdUMvMrK/WvNfshchokez/0YnHk//wFwXgMEFAANYxDtg1MvCt1EXyGo6QWho/28LD5G9r1qFmJldIWuXPUS/CXly+2aLazK05zv9LTHM4fBAQgHWU8ICncUpsUfvKVuodtOXIUK6E80OcYDmxYhoUhalU06WteoxSJrOrQhQU817dYkFMc9gETOMFWIfmtXmiYfDvXuJDosby6VWkmVI7lh3r6afp6moiEtrUYfWMgU5J3xVbY+InD9FSZ5pffN8nBWATEIEArCUb0q1vHWc7xUF8vd+hk/I1MrHwYyai8S1L1ERiFc3yUpJv0u2we+FnMc1hcyAgAGsYbviDSISFfnEL92H2lQajW8Rna0UB8gHenlgoreAUX1AYtESbP+vDp6amu8gr5y/JU/8I0xw2CwICsIa9bi1IGKDrEwbts5kVZWa5uI6Hg+Ftu+uWScQQV7Pbzr4lrH6P5/ucYt/yJLT99L/5CKY5bBwEBGAd3UOlzDR3M7zi8YPmMGIUlaI5TeXTfqemRxWPONtrWlS94TbLNWrYc+//pLz0xW8KwKZBQADW4Ov61FJV/aeaPrIMVVw9rpa+Sp6J1TnMulqFxX/RS6mmuub5vxZ4ROWo6zyqOF36b78rF9+PaQ5HAwICsAZbJNgGGFKk3W6kHhcdwgOPWMK/4sKwV4qJTN6+XSzCGDJVIeKpKbGY6hqnGneLBZ97/6cE4KhAQADWMJc9UosOoqfhprrKuPJ8tTKvwu0JtfUd7a6+8Tnl/gSQlc3Zcs9+JeKrSYaV5uefl6f+8S/J3uWXBOCoYB0IwBpquinOgLLpt3Hr9RqhxKAkzKRKUjSa6JLWhwR1sjLuh6QpvHbM014Xfva3Mc3hyCECAViLNgP9mNaa2T09TcjV/Dz0MnG9m9SXiVGRFn8aYjxWm1G5+IFPyguf+gMBOGqIQACug05mXfkuuSoapumGk7o01Bh9TBYYahuNxGMqcyvQbaFhjUDGFfCXf+NL+B5wbCAgAGuoq83zdiQrCcs8bGCPYmJloyDkSVUy/0U4zwtKkrBx1lbnezz7n/6XABwXpLAA1vDKM5eT72DGedSJJvNUp9QO75vUVVwTEs+3t+P3wUspqcz4/ZWX5dw/+WVMczhWEBCAdag/dtbXfag0AcJkgJcDpvnWInH33DqNdzgrPm1QwnfZi3nm334U0xyOHQQE4Dr4OsIwX1ezNyJWZny7n+Yywam771p6StIakbillr1q3PU3PqGwyHMf+BSmOWwFCAjADdD7G+1IL3NzpmSa8lJNhaOpLuF9SU+pkhljXeXFT3+1FxCAbQATHeB6aFx57gfN3RgfWTsczjmtqB3drKyVapp5pU07qvPbXHVcO38J0xy2CiIQgDXU8T4t9AupqPoa97KSZr1GNdVXmtaTD9/PnBOfP1JL7O2b5uf/6QfxPWCrQEAA1hDdh7Sg0N74Y2Wjz9GGEN1ftME60bhD47gHVrXS/VRt2ugiD8QDtg0EBGAdoy9hz/3QZm2HiGieIDWc1qxUT1Nx60690fvQMl2w2IuTynO/8Cm58pv/RwC2DTwQgDXsXbji4UAJuatGMdy30OSH2JbumkVkCEJKms5bz/G1I0Ve+vTXMM1hayECAVhLGddkFElKYE8lHP4KpWUgFrUM5bx4TFPpvFM+ftcJS/9Mc0xz2GKIQADWsj/Kr1aSkkszJvdkfysLKDRHHeH7eREp/ayuvSsvybkf+y/9s80BthUEBOB6jDvl1g0M01eSM1Bz30txs3wiNPVNU8lzv/BpxAO2HlJYADdImqorEvwNDQ+NmgrEmh1NRgN9+FSLdKb587/2eQHYdhAQgOsxpqE0PE1wWqSmteJsKh0tE51MAxapK9Kztrz0pW/10QfALoCAANwQvrK8mtx5SxOft5u2KinBEmmm9opIqufa+X3T/N99TAB2BQQEYA2qwb8YKVUuim+SqHOLDOuDnzSb6dU8H/bXGjZI7L7CNIddAwEBWMPelatx1q7I7JMFNfkj6fnlvjt7WjxY3fe64eKzP/dxxAN2DmZhAayhvPByiD50OvVWQ8qqikt4aFQbndhpqzzjCtMcdhEiEIB1qLhxrr4Y3SglPecjrg6xpwuWtKPWaMYP76/+4TNy6RcxzWE3IQIBuGGCzzHZAMsjkWq0u4iU8Ox03xq+2xzx6Xd9SAB2FSIQgLWozOzkPj4bUHwBYDTZm/Uiw7k6WQvyzE/8d3wP2GkQEIA1dB5ITU61W5EM+2SNrzKmpmTcHyvOvBrXh8THFz77c4/vp6+eFoBdBgEBWMO1b1zoX7UuG6/LyosEQ91XkVuEUixGsZlWOpa9/KEn5PKvY5rD7oOAAKzh6v97so9C+shiNe68q7Z7iUhYVFi9do9CzEY3oXnl6efl4s99XABOAggIwHV44SNfao7EiKJa5MUiDN+ot7hXIsMzzc//+K8IwEkBAQG4Dlc++iUpV17u3/cRRnjcYF4jEhi9D1s8WDDN4eSBgABchy6FdTHuUaWani4YFw7anlglrPfY/9+lX/oMpjmcOBAQgBvg6v99Up772f85WV0+bHNibsgYh6jt1d6V68Sj+xfgpKFnz54tAgA3xG333SOv/dtvk9vuv8dSVBXbnmQ0z/f2017P/vRvyouf+ZoAnEQQEIAF3PV9b5C7/uwb5Pbvep3vrjuKydWvPyMvfvYP5cqHvtCLCMBJBQEBuEXOPPzHZHX3HftG+1V55elLiAacGtgLC+AWubYfcQCcRjDRAQBgEQgIAAAsAgEBAIBFICAAALAIBAQAABaBgAAAwCIQEAAAWAQCAgAAi0BAAABgEQgIAAAsAgEBAIBFICAAALAIBAQAABaBgAAAwCIQEAAAWAQCAgAAi0BAAABgEQgIAAAsAgEBAIBFICAAALAIBAQAABaBgAAAwCIQEAAAWAQCAgAAi0BAAABgEQgIAAAsAgEBAIBFICAAALAIBAQAABaBgAAAwCIQEAAAWAQCAgAAi0BAAABgEQgIAAAsAgEBAIBFICAAALAIBAQAABaBgAAAwCIQEAAAWAQCAgAAi0BAAABgEQgIAAAsAgEBAIBFICAAALAIBAQAABaBgAAAwCIQEAAAWAQCAgAAi0BAAABgEQgIAAAsAgEBAIBFICAAALAIBAQAABaBgAAAwCIQEAAAWAQCAgAAi0BAAABgEQgIAAAsAgEBAIBFICAAALAIBAQAABaBgAAAwCIQEAAAWAQCAgAAi0BAAABgEQgIAAAsAgEBAIBFICAAALAIBAQAABaBgAAAwCIQEAAAWAQCAgAAi0BAAABgEQgIAAAsAgEBAIBFICAAALAIBAQAABaBgAAAwCIQEAAAWAQCAgAAi0BAAABgEQgIAAAsAgEBAIBF/H+rtdQ8fW7b1AAAAABJRU5ErkJggg==;" parent="khfz_JvH05aHgdhEc7UK-38" vertex="1">
          <mxGeometry x="16" width="78" height="78" as="geometry" />
        </mxCell>
        <mxCell id="khfz_JvH05aHgdhEc7UK-13" value="Vector Store on Supabase" style="text;strokeColor=none;align=center;fillColor=none;html=1;verticalAlign=middle;whiteSpace=wrap;rounded=0;" vertex="1" parent="khfz_JvH05aHgdhEc7UK-38">
          <mxGeometry y="78" width="110" height="50" as="geometry" />
        </mxCell>
        <mxCell id="khfz_JvH05aHgdhEc7UK-36" value="" style="group" vertex="1" connectable="0" parent="khfz_JvH05aHgdhEc7UK-22">
          <mxGeometry x="200" y="140" width="110" height="128" as="geometry" />
        </mxCell>
        <mxCell id="khfz_JvH05aHgdhEc7UK-2" value="" style="sketch=0;points=[[0,0,0],[0.25,0,0],[0.5,0,0],[0.75,0,0],[1,0,0],[0,1,0],[0.25,1,0],[0.5,1,0],[0.75,1,0],[1,1,0],[0,0.25,0],[0,0.5,0],[0,0.75,0],[1,0.25,0],[1,0.5,0],[1,0.75,0]];outlineConnect=0;fontColor=#232F3E;fillColor=#01A88D;strokeColor=#ffffff;dashed=0;verticalLabelPosition=bottom;verticalAlign=top;align=center;html=1;fontSize=12;fontStyle=0;aspect=fixed;shape=mxgraph.aws4.resourceIcon;resIcon=mxgraph.aws4.bedrock;" vertex="1" parent="khfz_JvH05aHgdhEc7UK-36">
          <mxGeometry x="16" width="78" height="78" as="geometry" />
        </mxCell>
        <mxCell id="khfz_JvH05aHgdhEc7UK-19" value="&lt;b&gt;Amazon Bedrock&lt;/b&gt;&lt;br&gt;Claude 2" style="text;strokeColor=none;align=center;fillColor=none;html=1;verticalAlign=middle;whiteSpace=wrap;rounded=0;" vertex="1" parent="khfz_JvH05aHgdhEc7UK-36">
          <mxGeometry y="78" width="110" height="50" as="geometry" />
        </mxCell>
        <mxCell id="khfz_JvH05aHgdhEc7UK-52" value="" style="edgeStyle=orthogonalEdgeStyle;html=1;endArrow=none;elbow=vertical;startArrow=block;startFill=1;strokeColor=#545B64;rounded=0;flowAnimation=1;flowAnimationDirection=reverse;" edge="1" parent="khfz_JvH05aHgdhEc7UK-36">
          <mxGeometry width="100" relative="1" as="geometry">
            <mxPoint x="-86" y="63.900000000000006" as="sourcePoint" />
            <mxPoint x="13" y="63.900000000000006" as="targetPoint" />
          </mxGeometry>
        </mxCell>
        <mxCell id="khfz_JvH05aHgdhEc7UK-53" value="Response" style="edgeLabel;html=1;align=center;verticalAlign=middle;resizable=0;points=[];" vertex="1" connectable="0" parent="khfz_JvH05aHgdhEc7UK-52">
          <mxGeometry x="-0.0956" y="1" relative="1" as="geometry">
            <mxPoint x="4" as="offset" />
          </mxGeometry>
        </mxCell>
        <mxCell id="khfz_JvH05aHgdhEc7UK-48" value="" style="edgeStyle=orthogonalEdgeStyle;html=1;endArrow=block;elbow=vertical;startArrow=none;endFill=1;strokeColor=#545B64;rounded=0;flowAnimation=1;" edge="1" parent="khfz_JvH05aHgdhEc7UK-22">
          <mxGeometry width="100" relative="1" as="geometry">
            <mxPoint x="112" y="160" as="sourcePoint" />
            <mxPoint x="212" y="160" as="targetPoint" />
          </mxGeometry>
        </mxCell>
        <mxCell id="khfz_JvH05aHgdhEc7UK-50" value="Prompt &lt;br&gt;request" style="edgeLabel;html=1;align=center;verticalAlign=middle;resizable=0;points=[];" vertex="1" connectable="0" parent="khfz_JvH05aHgdhEc7UK-48">
          <mxGeometry x="0.29" y="-3" relative="1" as="geometry">
            <mxPoint x="-16" as="offset" />
          </mxGeometry>
        </mxCell>
        <mxCell id="khfz_JvH05aHgdhEc7UK-57" value="" style="edgeStyle=orthogonalEdgeStyle;html=1;endArrow=none;elbow=vertical;startArrow=block;startFill=1;strokeColor=#545B64;rounded=0;exitX=0.5;exitY=1;exitDx=0;exitDy=0;flowAnimation=1;flowAnimationDirection=reverse;" edge="1" parent="khfz_JvH05aHgdhEc7UK-22">
          <mxGeometry width="100" relative="1" as="geometry">
            <mxPoint x="440" y="239.9999999999999" as="sourcePoint" />
            <mxPoint x="440" y="332.02393617021266" as="targetPoint" />
          </mxGeometry>
        </mxCell>
        <mxCell id="khfz_JvH05aHgdhEc7UK-58" value="" style="group" vertex="1" connectable="0" parent="khfz_JvH05aHgdhEc7UK-22">
          <mxGeometry x="640" y="178" width="110" height="128" as="geometry" />
        </mxCell>
        <mxCell id="khfz_JvH05aHgdhEc7UK-59" value="" style="sketch=0;points=[[0,0,0],[0.25,0,0],[0.5,0,0],[0.75,0,0],[1,0,0],[0,1,0],[0.25,1,0],[0.5,1,0],[0.75,1,0],[1,1,0],[0,0.25,0],[0,0.5,0],[0,0.75,0],[1,0.25,0],[1,0.5,0],[1,0.75,0]];outlineConnect=0;fontColor=#232F3E;fillColor=#ED7100;strokeColor=#ffffff;dashed=0;verticalLabelPosition=bottom;verticalAlign=top;align=center;html=1;fontSize=12;fontStyle=0;aspect=fixed;shape=mxgraph.aws4.resourceIcon;resIcon=mxgraph.aws4.lambda;" vertex="1" parent="khfz_JvH05aHgdhEc7UK-58">
          <mxGeometry x="16" width="78" height="78" as="geometry" />
        </mxCell>
        <mxCell id="khfz_JvH05aHgdhEc7UK-60" value="Action Group&lt;br&gt;Lambda Function" style="text;strokeColor=none;align=center;fillColor=none;html=1;verticalAlign=middle;whiteSpace=wrap;rounded=0;" vertex="1" parent="khfz_JvH05aHgdhEc7UK-58">
          <mxGeometry y="78" width="110" height="50" as="geometry" />
        </mxCell>
        <mxCell id="khfz_JvH05aHgdhEc7UK-61" value="" style="group" vertex="1" connectable="0" parent="khfz_JvH05aHgdhEc7UK-22">
          <mxGeometry x="460" y="280" width="110" height="137" as="geometry" />
        </mxCell>
        <mxCell id="khfz_JvH05aHgdhEc7UK-6" value="" style="sketch=0;outlineConnect=0;fontColor=#232F3E;gradientColor=none;fillColor=#232F3D;strokeColor=none;dashed=0;verticalLabelPosition=bottom;verticalAlign=top;align=center;html=1;fontSize=12;fontStyle=0;aspect=fixed;pointerEvents=1;shape=mxgraph.aws4.documents;fillOpacity=70;" vertex="1" parent="khfz_JvH05aHgdhEc7UK-61">
          <mxGeometry x="23" width="64" height="78" as="geometry" />
        </mxCell>
        <mxCell id="khfz_JvH05aHgdhEc7UK-35" value="&lt;b&gt;Markdown files&lt;/b&gt; Attractions/Flights/&lt;br&gt;Restaurant" style="text;strokeColor=none;align=center;fillColor=none;html=1;verticalAlign=middle;whiteSpace=wrap;rounded=0;" vertex="1" parent="khfz_JvH05aHgdhEc7UK-61">
          <mxGeometry y="87" width="110" height="50" as="geometry" />
        </mxCell>
        <mxCell id="khfz_JvH05aHgdhEc7UK-10" value="" style="shape=image;html=1;verticalAlign=top;verticalLabelPosition=bottom;labelBackgroundColor=#ffffff;imageAspect=0;aspect=fixed;image=https://cdn3.iconfinder.com/data/icons/essential-pack/32/9-Computer-Communication-128.png;imageBackground=none;fillOpacity=70;" vertex="1" parent="khfz_JvH05aHgdhEc7UK-1">
          <mxGeometry x="-128" y="177" width="78" height="78" as="geometry" />
        </mxCell>
        <mxCell id="khfz_JvH05aHgdhEc7UK-39" value="" style="edgeStyle=orthogonalEdgeStyle;html=1;endArrow=block;elbow=vertical;startArrow=block;startFill=1;endFill=1;strokeColor=#545B64;rounded=0;flowAnimation=1;flowAnimationDirection=alternate-reverse;" edge="1" parent="khfz_JvH05aHgdhEc7UK-1">
          <mxGeometry width="100" relative="1" as="geometry">
            <mxPoint x="-50" y="215.57999999999998" as="sourcePoint" />
            <mxPoint x="50" y="215.57999999999998" as="targetPoint" />
          </mxGeometry>
        </mxCell>
        <mxCell id="khfz_JvH05aHgdhEc7UK-3" value="" style="sketch=0;outlineConnect=0;fontColor=#232F3E;gradientColor=none;fillColor=#01A88D;strokeColor=none;dashed=0;verticalLabelPosition=bottom;verticalAlign=top;align=center;html=1;fontSize=12;fontStyle=0;aspect=fixed;pointerEvents=1;shape=mxgraph.aws4.sagemaker_model;" vertex="1" parent="1">
          <mxGeometry x="-190" y="200" width="78" height="78" as="geometry" />
        </mxCell>
        <mxCell id="khfz_JvH05aHgdhEc7UK-12" value="" style="sketch=0;pointerEvents=1;shadow=0;dashed=0;html=1;strokeColor=none;fillColor=#505050;labelPosition=center;verticalLabelPosition=bottom;verticalAlign=top;outlineConnect=0;align=center;shape=mxgraph.office.concepts.document;" vertex="1" parent="1">
          <mxGeometry x="330" y="730" width="40" height="47" as="geometry" />
        </mxCell>
        <mxCell id="khfz_JvH05aHgdhEc7UK-11" value="" style="sketch=0;pointerEvents=1;shadow=0;dashed=0;html=1;strokeColor=none;fillColor=#505050;labelPosition=center;verticalLabelPosition=bottom;verticalAlign=top;outlineConnect=0;align=center;shape=mxgraph.office.concepts.document;" vertex="1" parent="1">
          <mxGeometry x="393" y="730" width="40" height="50" as="geometry" />
        </mxCell>
        <mxCell id="khfz_JvH05aHgdhEc7UK-5" value="" style="sketch=0;pointerEvents=1;shadow=0;dashed=0;html=1;strokeColor=none;fillColor=#505050;labelPosition=center;verticalLabelPosition=bottom;verticalAlign=top;outlineConnect=0;align=center;shape=mxgraph.office.concepts.document;" vertex="1" parent="1">
          <mxGeometry x="460" y="730" width="40" height="47" as="geometry" />
        </mxCell>
        <mxCell id="khfz_JvH05aHgdhEc7UK-40" value="" style="verticalLabelPosition=bottom;aspect=fixed;html=1;shape=mxgraph.salesforce.web2;" vertex="1" parent="1">
          <mxGeometry x="-100" y="510" width="60" height="60" as="geometry" />
        </mxCell>
        <mxCell id="khfz_JvH05aHgdhEc7UK-43" value="Frontend" style="fillColor=none;strokeColor=#5A6C86;dashed=1;verticalAlign=top;fontStyle=0;fontColor=#5A6C86;whiteSpace=wrap;html=1;" vertex="1" parent="1">
          <mxGeometry x="1020" y="218" width="130" height="130" as="geometry" />
        </mxCell>
        <mxCell id="khfz_JvH05aHgdhEc7UK-44" value="" style="verticalLabelPosition=bottom;aspect=fixed;html=1;shape=mxgraph.salesforce.web2;" vertex="1" parent="1">
          <mxGeometry x="1055" y="247" width="60" height="60" as="geometry" />
        </mxCell>
        <mxCell id="khfz_JvH05aHgdhEc7UK-45" value="" style="group" vertex="1" connectable="0" parent="1">
          <mxGeometry x="260" y="240" width="110" height="128" as="geometry" />
        </mxCell>
        <mxCell id="khfz_JvH05aHgdhEc7UK-46" value="" style="sketch=0;points=[[0,0,0],[0.25,0,0],[0.5,0,0],[0.75,0,0],[1,0,0],[0,1,0],[0.25,1,0],[0.5,1,0],[0.75,1,0],[1,1,0],[0,0.25,0],[0,0.5,0],[0,0.75,0],[1,0.25,0],[1,0.5,0],[1,0.75,0]];outlineConnect=0;fontColor=#232F3E;fillColor=#ED7100;strokeColor=#ffffff;dashed=0;verticalLabelPosition=bottom;verticalAlign=top;align=center;html=1;fontSize=12;fontStyle=0;aspect=fixed;shape=mxgraph.aws4.resourceIcon;resIcon=mxgraph.aws4.lambda;" vertex="1" parent="khfz_JvH05aHgdhEc7UK-45">
          <mxGeometry x="16" width="78" height="78" as="geometry" />
        </mxCell>
        <mxCell id="khfz_JvH05aHgdhEc7UK-47" value="&lt;b&gt;AWS Lambda&lt;/b&gt; Invocation Function" style="text;strokeColor=none;align=center;fillColor=none;html=1;verticalAlign=middle;whiteSpace=wrap;rounded=0;" vertex="1" parent="khfz_JvH05aHgdhEc7UK-45">
          <mxGeometry y="78" width="110" height="50" as="geometry" />
        </mxCell>
        <mxCell id="khfz_JvH05aHgdhEc7UK-55" value="&lt;b&gt;User&lt;/b&gt;" style="text;strokeColor=none;align=center;fillColor=none;html=1;verticalAlign=middle;whiteSpace=wrap;rounded=0;" vertex="1" parent="1">
          <mxGeometry x="70" y="318" width="110" height="50" as="geometry" />
        </mxCell>
      </root>
    </mxGraphModel>
  </diagram>
</mxfile>
